<?xml version="1.0" encoding="UTF-8" standalone="no"?>
<svg
   xmlns:dc="http://purl.org/dc/elements/1.1/"
   xmlns:cc="http://creativecommons.org/ns#"
   xmlns:rdf="http://www.w3.org/1999/02/22-rdf-syntax-ns#"
   xmlns:svg="http://www.w3.org/2000/svg"
   xmlns="http://www.w3.org/2000/svg"
   id="svg8"
   version="1.1"
   viewBox="0 0 12.7 12.7"
   height="48"
   width="48">
  <defs
     id="defs2" />
  <metadata
     id="metadata5">
    <rdf:RDF>
      <cc:Work
         rdf:about="">
        <dc:format>image/svg+xml</dc:format>
        <dc:type
           rdf:resource="http://purl.org/dc/dcmitype/StillImage" />
        <dc:title></dc:title>
      </cc:Work>
    </rdf:RDF>
  </metadata>
  <path
     d="M 11.796537,1.6551767 H 0.93341986 c -0.48979457,0 -0.8883715,0.4104323 -0.8883715,0.9147954 v 7.7153459 c 0,0.504363 0.39857693,0.914795 0.8883715,0.914795 H 11.796537 c 0.489794,0 0.888371,-0.410432 0.888371,-0.914795 V 2.5699721 c 0,-0.5043631 -0.398577,-0.9147954 -0.888371,-0.9147954 z m 0.467043,8.6301413 c 0,0.265306 -0.209401,0.480935 -0.467043,0.480935 H 0.93341986 c -0.25764248,0 -0.46704283,-0.215629 -0.46704283,-0.480935 V 2.5699721 c 0,-0.2653058 0.20940035,-0.4809346 0.46704283,-0.4809346 H 11.796537 c 0.257642,0 0.467043,0.2156288 0.467043,0.4809346 z"
     id="path2"
     style="font-style:normal;font-variant:normal;font-weight:normal;font-stretch:normal;font-size:4.73911px;line-height:1.25;font-family:'Sitka Banner';-inkscape-font-specification:'Sitka Banner';letter-spacing:0px;word-spacing:0px;fill:#ffffff;fill-opacity:1;stroke:#ffffff;stroke-width:0.01322917;stroke-miterlimit:4;stroke-dasharray:none;stroke-opacity:1;stroke-dashoffset:0;opacity:0.99800004" />
  <path
     d="M 4.8140675,7.7825922 4.0476707,7.3795356 V 7.2955836 C 4.3906322,7.1027325 4.6268478,6.7197015 4.7664574,6.3488994 4.9193584,5.9427953 4.9455248,5.3221662 4.7649725,4.9275772 4.3238039,4.2018588 3.9581109,3.9222464 3.1354025,3.8735466 2.8213354,3.9047949 2.2186892,4.0723808 1.8600143,4.4449442 1.7753529,4.577166 1.6028727,4.8439191 1.5479267,5.0531741 c -0.080818,0.3077839 -0.057548,0.8906398 0.095642,1.2957253 0.1401476,0.3705991 0.3758251,0.75405 0.7187866,0.9466842 v 0.081566 L 1.568361,7.780206 C 1.2784869,7.9429039 1.0983689,8.2552834 1.0983689,8.5954304 v 0.2874327 c 0,0.1741951 0,0.4531836 2.1066435,0.4531836 2.1066432,0 2.1066432,-0.2789885 2.1066432,-0.4531836 V 8.6127847 c 0,-0.3538134 -0.1906511,-0.6716163 -0.4975881,-0.8301925 z m 0.076261,1.0512446 c -0.1314545,0.082434 -0.6544274,0.080042 -1.6736215,0.080042 -1.019194,0 -1.5655533,0.00239 -1.6970077,-0.080042 V 8.5954304 c 0,-0.181137 0.095852,-0.3477394 0.2426853,-0.4299561 L 2.5749164,7.7530897 C 2.8416941,7.5183721 2.8629145,7.1899204 2.6562327,6.9610768 2.336655,6.8192044 2.1444934,6.4587491 2.0210799,6.1337045 1.9104326,5.8422836 1.9298371,5.5116283 1.9547206,5.2009037 1.9699603,5.010612 2.0712833,4.822274 2.1968377,4.6784716 2.4360889,4.4044487 2.7952485,4.3203935 3.1515092,4.2468545 3.5394633,4.2248046 4.1543762,4.4455873 4.454253,5.2026392 4.5822542,5.4861317 4.4990361,5.8426506 4.3887357,6.1334875 4.2654444,6.4585784 4.0731604,6.8189874 3.7535826,6.9608598 3.4668515,7.1580848 3.6629386,7.557728 3.8294218,7.752005 l 0.7952579,0.4184587 c 0.1638968,0.084169 0.2656476,0.2538086 0.2656476,0.442321 z"
     id="path4"
     style="font-style:normal;font-variant:normal;font-weight:normal;font-stretch:normal;font-size:4.73911px;line-height:1.25;font-family:'Sitka Banner';-inkscape-font-specification:'Sitka Banner';letter-spacing:0px;word-spacing:0px;fill:#ffffff;fill-opacity:1;stroke:#ffffff;stroke-width:0.01322917;stroke-miterlimit:4;stroke-dasharray:none;stroke-opacity:1" />
  <path
     d="m 6.3649783,4.9091325 h 2.1066434 c 0.1164973,0 0.2106644,-0.096968 0.2106644,-0.2169304 0,-0.1199626 -0.094167,-0.2169304 -0.2106644,-0.2169304 H 6.3649783 c -0.1164972,0 -0.2106644,0.096968 -0.2106644,0.2169304 0,0.1199624 0.094167,0.2169304 0.2106644,0.2169304 z"
     id="path6"
     style="font-style:normal;font-variant:normal;font-weight:normal;font-stretch:normal;font-size:4.73911px;line-height:1.25;font-family:'Sitka Banner';-inkscape-font-specification:'Sitka Banner';letter-spacing:0px;word-spacing:0px;fill:#ffffff;fill-opacity:1;stroke:#ffffff;stroke-width:0.01322917;stroke-miterlimit:4;stroke-dasharray:none;stroke-opacity:1" />
  <path
     d="M 6.5756427,8.163088 H 6.3649783 c -0.1164972,0 -0.2106644,0.096968 -0.2106644,0.2169304 0,0.1199626 0.094167,0.2169305 0.2106644,0.2169305 h 0.2106644 c 0.1164974,0 0.2106643,-0.096968 0.2106643,-0.2169305 0,-0.1199623 -0.094167,-0.2169304 -0.2106643,-0.2169304 z"
     id="path10"
     style="font-style:normal;font-variant:normal;font-weight:normal;font-stretch:normal;font-size:4.73911px;line-height:1.25;font-family:'Sitka Banner';-inkscape-font-specification:'Sitka Banner';letter-spacing:0px;word-spacing:0px;fill:#ffffff;fill-opacity:1;stroke:#ffffff;stroke-width:0.01322917;stroke-miterlimit:4;stroke-dasharray:none;stroke-opacity:1" />
  <path
     d="M 7.8396286,8.163088 H 7.4183001 c -0.1164974,0 -0.2106643,0.096968 -0.2106643,0.2169304 0,0.1199626 0.094167,0.2169305 0.2106643,0.2169305 h 0.4213285 c 0.1164975,0 0.2106644,-0.096968 0.2106644,-0.2169305 0,-0.1199623 -0.094167,-0.2169304 -0.2106644,-0.2169304 z"
     id="path12"
     style="font-style:normal;font-variant:normal;font-weight:normal;font-stretch:normal;font-size:4.73911px;line-height:1.25;font-family:'Sitka Banner';-inkscape-font-specification:'Sitka Banner';letter-spacing:0px;word-spacing:0px;fill:#ffffff;fill-opacity:1;stroke:#ffffff;stroke-width:0.01322917;stroke-miterlimit:4;stroke-dasharray:none;stroke-opacity:1" />
  <path
     d="M 9.7600615,8.163088 H 9.3387327 c -0.1164974,0 -0.2106643,0.096968 -0.2106643,0.2169304 0,0.1199626 0.094167,0.2169305 0.2106643,0.2169305 h 0.4213288 c 0.1164972,0 0.2106641,-0.096968 0.2106641,-0.2169305 0,-0.1199623 -0.094167,-0.2169304 -0.2106641,-0.2169304 z"
     id="path16"
     style="font-style:normal;font-variant:normal;font-weight:normal;font-stretch:normal;font-size:4.73911px;line-height:1.25;font-family:'Sitka Banner';-inkscape-font-specification:'Sitka Banner';letter-spacing:0px;word-spacing:0px;fill:#ffffff;fill-opacity:1;stroke:#ffffff;stroke-width:0.01322917;stroke-miterlimit:4;stroke-dasharray:none;stroke-opacity:1" />
  <path
     d="m 10.850022,8.2259979 c -0.03813,0.041 -0.06109,0.097619 -0.06109,0.1540205 0,0.056402 0.02296,0.1128039 0.06109,0.1540206 0.03982,0.039048 0.0948,0.06291 0.149572,0.06291 0.05477,0 0.109545,-0.023862 0.149571,-0.06291 0.03792,-0.041217 0.06109,-0.097619 0.06109,-0.1540206 0,-0.056402 -0.02317,-0.1130206 -0.06109,-0.1540205 -0.08005,-0.080264 -0.221197,-0.080264 -0.299143,0 z"
     id="path18"
     style="font-style:normal;font-variant:normal;font-weight:normal;font-stretch:normal;font-size:4.73911px;line-height:1.25;font-family:'Sitka Banner';-inkscape-font-specification:'Sitka Banner';letter-spacing:0px;word-spacing:0px;fill:#ffffff;fill-opacity:1;stroke:#ffffff;stroke-width:0.01322917;stroke-miterlimit:4;stroke-dasharray:none;stroke-opacity:1" />
  <path
     d="m 8.5032412,5.7768539 h -2.2468 c -0.056476,0 -0.1021273,0.096968 -0.1021273,0.2169305 0,0.1199623 0.045651,0.2169304 0.1021273,0.2169304 h 2.2468 c 0.056476,0 0.1021274,-0.096968 0.1021274,-0.2169304 0,-0.1199626 -0.045651,-0.2169305 -0.1021274,-0.2169305 z"
     id="path20"
     style="font-style:normal;font-variant:normal;font-weight:normal;font-stretch:normal;font-size:4.73911px;line-height:1.25;font-family:'Sitka Banner';-inkscape-font-specification:'Sitka Banner';letter-spacing:0px;word-spacing:0px;fill:#ffffff;fill-opacity:1;stroke:#ffffff;stroke-width:0.01322917;stroke-miterlimit:4;stroke-dasharray:none;stroke-opacity:1" />
  <path
     d="M 10.999594,7.0784362 H 6.3649783 c -0.1164972,0 -0.2106644,0.096968 -0.2106644,0.2169304 0,0.1199626 0.094167,0.2169304 0.2106644,0.2169304 h 4.6346157 c 0.116497,0 0.210664,-0.096968 0.210664,-0.2169304 0,-0.1199626 -0.09417,-0.2169304 -0.210664,-0.2169304 z"
     id="path22"
     style="font-style:normal;font-variant:normal;font-weight:normal;font-stretch:normal;font-size:4.73911px;line-height:1.25;font-family:'Sitka Banner';-inkscape-font-specification:'Sitka Banner';letter-spacing:0px;word-spacing:0px;fill:#ffffff;fill-opacity:1;stroke:#ffffff;stroke-width:0.01322917;stroke-miterlimit:4;stroke-dasharray:none;stroke-opacity:1" />
  <g
     id="g26"
     style="font-style:normal;font-variant:normal;font-weight:normal;font-stretch:normal;font-size:4.73911px;line-height:1.25;font-family:'Sitka Banner';-inkscape-font-specification:'Sitka Banner';letter-spacing:0px;word-spacing:0px;fill:#ff7f11;fill-opacity:1;stroke:#ff7f11;stroke-width:0.0119402;stroke-miterlimit:4;stroke-dasharray:none;stroke-opacity:1"
     transform="matrix(0.21836614,0,0,0.22486127,-0.78131829,1.9403501)" />
  <g
     id="g28"
     style="font-style:normal;font-variant:normal;font-weight:normal;font-stretch:normal;font-size:4.73911px;line-height:1.25;font-family:'Sitka Banner';-inkscape-font-specification:'Sitka Banner';letter-spacing:0px;word-spacing:0px;fill:#ff7f11;fill-opacity:1;stroke:#ff7f11;stroke-width:0.0119402;stroke-miterlimit:4;stroke-dasharray:none;stroke-opacity:1"
     transform="matrix(0.21836614,0,0,0.22486127,-0.78131829,1.9403501)" />
  <g
     id="g30"
     style="font-style:normal;font-variant:normal;font-weight:normal;font-stretch:normal;font-size:4.73911px;line-height:1.25;font-family:'Sitka Banner';-inkscape-font-specification:'Sitka Banner';letter-spacing:0px;word-spacing:0px;fill:#ff7f11;fill-opacity:1;stroke:#ff7f11;stroke-width:0.0119402;stroke-miterlimit:4;stroke-dasharray:none;stroke-opacity:1"
     transform="matrix(0.21836614,0,0,0.22486127,-0.78131829,1.9403501)" />
  <g
     id="g32"
     style="font-style:normal;font-variant:normal;font-weight:normal;font-stretch:normal;font-size:4.73911px;line-height:1.25;font-family:'Sitka Banner';-inkscape-font-specification:'Sitka Banner';letter-spacing:0px;word-spacing:0px;fill:#ff7f11;fill-opacity:1;stroke:#ff7f11;stroke-width:0.0119402;stroke-miterlimit:4;stroke-dasharray:none;stroke-opacity:1"
     transform="matrix(0.21836614,0,0,0.22486127,-0.78131829,1.9403501)" />
  <g
     id="g34"
     style="font-style:normal;font-variant:normal;font-weight:normal;font-stretch:normal;font-size:4.73911px;line-height:1.25;font-family:'Sitka Banner';-inkscape-font-specification:'Sitka Banner';letter-spacing:0px;word-spacing:0px;fill:#ff7f11;fill-opacity:1;stroke:#ff7f11;stroke-width:0.0119402;stroke-miterlimit:4;stroke-dasharray:none;stroke-opacity:1"
     transform="matrix(0.21836614,0,0,0.22486127,-0.78131829,1.9403501)" />
  <g
     id="g36"
     style="font-style:normal;font-variant:normal;font-weight:normal;font-stretch:normal;font-size:4.73911px;line-height:1.25;font-family:'Sitka Banner';-inkscape-font-specification:'Sitka Banner';letter-spacing:0px;word-spacing:0px;fill:#ff7f11;fill-opacity:1;stroke:#ff7f11;stroke-width:0.0119402;stroke-miterlimit:4;stroke-dasharray:none;stroke-opacity:1"
     transform="matrix(0.21836614,0,0,0.22486127,-0.78131829,1.9403501)" />
  <g
     id="g38"
     style="font-style:normal;font-variant:normal;font-weight:normal;font-stretch:normal;font-size:4.73911px;line-height:1.25;font-family:'Sitka Banner';-inkscape-font-specification:'Sitka Banner';letter-spacing:0px;word-spacing:0px;fill:#ff7f11;fill-opacity:1;stroke:#ff7f11;stroke-width:0.0119402;stroke-miterlimit:4;stroke-dasharray:none;stroke-opacity:1"
     transform="matrix(0.21836614,0,0,0.22486127,-0.78131829,1.9403501)" />
  <g
     id="g40"
     style="font-style:normal;font-variant:normal;font-weight:normal;font-stretch:normal;font-size:4.73911px;line-height:1.25;font-family:'Sitka Banner';-inkscape-font-specification:'Sitka Banner';letter-spacing:0px;word-spacing:0px;fill:#ff7f11;fill-opacity:1;stroke:#ff7f11;stroke-width:0.0119402;stroke-miterlimit:4;stroke-dasharray:none;stroke-opacity:1"
     transform="matrix(0.21836614,0,0,0.22486127,-0.78131829,1.9403501)" />
  <g
     id="g42"
     style="font-style:normal;font-variant:normal;font-weight:normal;font-stretch:normal;font-size:4.73911px;line-height:1.25;font-family:'Sitka Banner';-inkscape-font-specification:'Sitka Banner';letter-spacing:0px;word-spacing:0px;fill:#ff7f11;fill-opacity:1;stroke:#ff7f11;stroke-width:0.0119402;stroke-miterlimit:4;stroke-dasharray:none;stroke-opacity:1"
     transform="matrix(0.21836614,0,0,0.22486127,-0.78131829,1.9403501)" />
  <g
     id="g44"
     style="font-style:normal;font-variant:normal;font-weight:normal;font-stretch:normal;font-size:4.73911px;line-height:1.25;font-family:'Sitka Banner';-inkscape-font-specification:'Sitka Banner';letter-spacing:0px;word-spacing:0px;fill:#ff7f11;fill-opacity:1;stroke:#ff7f11;stroke-width:0.0119402;stroke-miterlimit:4;stroke-dasharray:none;stroke-opacity:1"
     transform="matrix(0.21836614,0,0,0.22486127,-0.78131829,1.9403501)" />
  <g
     id="g46"
     style="font-style:normal;font-variant:normal;font-weight:normal;font-stretch:normal;font-size:4.73911px;line-height:1.25;font-family:'Sitka Banner';-inkscape-font-specification:'Sitka Banner';letter-spacing:0px;word-spacing:0px;fill:#ff7f11;fill-opacity:1;stroke:#ff7f11;stroke-width:0.0119402;stroke-miterlimit:4;stroke-dasharray:none;stroke-opacity:1"
     transform="matrix(0.21836614,0,0,0.22486127,-0.78131829,1.9403501)" />
  <g
     id="g48"
     style="font-style:normal;font-variant:normal;font-weight:normal;font-stretch:normal;font-size:4.73911px;line-height:1.25;font-family:'Sitka Banner';-inkscape-font-specification:'Sitka Banner';letter-spacing:0px;word-spacing:0px;fill:#ff7f11;fill-opacity:1;stroke:#ff7f11;stroke-width:0.0119402;stroke-miterlimit:4;stroke-dasharray:none;stroke-opacity:1"
     transform="matrix(0.21836614,0,0,0.22486127,-0.78131829,1.9403501)" />
  <g
     id="g50"
     style="font-style:normal;font-variant:normal;font-weight:normal;font-stretch:normal;font-size:4.73911px;line-height:1.25;font-family:'Sitka Banner';-inkscape-font-specification:'Sitka Banner';letter-spacing:0px;word-spacing:0px;fill:#ff7f11;fill-opacity:1;stroke:#ff7f11;stroke-width:0.0119402;stroke-miterlimit:4;stroke-dasharray:none;stroke-opacity:1"
     transform="matrix(0.21836614,0,0,0.22486127,-0.78131829,1.9403501)" />
  <g
     id="g52"
     style="font-style:normal;font-variant:normal;font-weight:normal;font-stretch:normal;font-size:4.73911px;line-height:1.25;font-family:'Sitka Banner';-inkscape-font-specification:'Sitka Banner';letter-spacing:0px;word-spacing:0px;fill:#ff7f11;fill-opacity:1;stroke:#ff7f11;stroke-width:0.0119402;stroke-miterlimit:4;stroke-dasharray:none;stroke-opacity:1"
     transform="matrix(0.21836614,0,0,0.22486127,-0.78131829,1.9403501)" />
  <g
     id="g54"
     style="font-style:normal;font-variant:normal;font-weight:normal;font-stretch:normal;font-size:4.73911px;line-height:1.25;font-family:'Sitka Banner';-inkscape-font-specification:'Sitka Banner';letter-spacing:0px;word-spacing:0px;fill:#ff7f11;fill-opacity:1;stroke:#ff7f11;stroke-width:0.0119402;stroke-miterlimit:4;stroke-dasharray:none;stroke-opacity:1"
     transform="matrix(0.21836614,0,0,0.22486127,-0.78131829,1.9403501)" />
  <path
     style="font-style:normal;font-variant:normal;font-weight:normal;font-stretch:normal;font-size:4.73911px;line-height:1.25;font-family:'Sitka Banner';-inkscape-font-specification:'Sitka Banner';letter-spacing:0px;word-spacing:0px;fill:#ffffff;fill-opacity:1;stroke:#ffffff;stroke-width:0.01322917;stroke-miterlimit:4;stroke-dasharray:none;stroke-opacity:1"
     id="path1630"
     d="M 9.4199134,5.781838 H 9.209249 c -0.1164972,0 -0.2106643,0.096968 -0.2106643,0.2169304 0,0.1199626 0.094167,0.2169304 0.2106643,0.2169304 h 0.2106644 c 0.1164975,0 0.2106644,-0.096968 0.2106644,-0.2169304 0,-0.1199624 -0.094167,-0.2169304 -0.2106644,-0.2169304 z" />
  <path
     style="font-style:normal;font-variant:normal;font-weight:normal;font-stretch:normal;font-size:4.73911px;line-height:1.25;font-family:'Sitka Banner';-inkscape-font-specification:'Sitka Banner';letter-spacing:0px;word-spacing:0px;fill:#ffffff;fill-opacity:1;stroke:#ffffff;stroke-width:0.01322917;stroke-miterlimit:4;stroke-dasharray:none;stroke-opacity:1"
     id="path1632"
     d="m 10.683899,5.781838 h -0.421328 c -0.116498,0 -0.210665,0.096968 -0.210665,0.2169304 0,0.1199626 0.09417,0.2169304 0.210665,0.2169304 h 0.421328 c 0.116498,0 0.210665,-0.096968 0.210665,-0.2169304 0,-0.1199624 -0.09417,-0.2169304 -0.210665,-0.2169304 z" />
</svg>
