<?xml version="1.0" encoding="UTF-8" standalone="no"?>
<svg
   xmlns:dc="http://purl.org/dc/elements/1.1/"
   xmlns:cc="http://creativecommons.org/ns#"
   xmlns:rdf="http://www.w3.org/1999/02/22-rdf-syntax-ns#"
   xmlns:svg="http://www.w3.org/2000/svg"
   xmlns="http://www.w3.org/2000/svg"
   xmlns:sodipodi="http://sodipodi.sourceforge.net/DTD/sodipodi-0.dtd"
   xmlns:inkscape="http://www.inkscape.org/namespaces/inkscape"
   inkscape:version="1.0 (4035a4fb49, 2020-05-01)"
   sodipodi:docname="contact.svg"
   version="1.1"
   data-name="Layer 6"
   width="512"
   viewBox="0 0 32 32"
   height="512"
   id="Layer_6">
  <metadata
     id="metadata17">
    <rdf:RDF>
      <cc:Work
         rdf:about="">
        <dc:format>image/svg+xml</dc:format>
        <dc:type
           rdf:resource="http://purl.org/dc/dcmitype/StillImage" />
      </cc:Work>
    </rdf:RDF>
  </metadata>
  <defs
     id="defs15" />
  <sodipodi:namedview
     inkscape:current-layer="Layer_6"
     inkscape:window-maximized="0"
     inkscape:window-y="0"
     inkscape:window-x="0"
     inkscape:cy="376.81996"
     inkscape:cx="-45.112052"
     inkscape:zoom="0.35888672"
     showgrid="false"
     id="namedview13"
     inkscape:window-height="976"
     inkscape:window-width="1336"
     inkscape:pageshadow="2"
     inkscape:pageopacity="0"
     guidetolerance="10"
     gridtolerance="10"
     objecttolerance="10"
     borderopacity="1"
     bordercolor="#666666"
     pagecolor="#ffffff" />
  <path
     style="fill:#f37121;fill-opacity:1"
     id="path2"
     d="m3.2 8.53v4.27a1.07 1.07 0 1 0 2.13 0v-4.27h1.07v.1a1.07 1.07 0 0 0 2.13 0v-2.33a1.07 1.07 0 1 0 -2.13 0v.1h-3.2a1.07 1.07 0 1 0 0 2.13z" />
  <path
     style="fill:#f37121;fill-opacity:1"
     id="path4"
     d="m3.2 17.07v4.27a1.07 1.07 0 1 0 2.13 0v-4.27h1.07v.1a1.07 1.07 0 1 0 2.13 0v-2.33a1.07 1.07 0 1 0 -2.13 0v.1h-3.2a1.07 1.07 0 0 0 0 2.13z" />
  <path
     style="fill:#f37121;fill-opacity:1"
     id="path6"
     d="m24.53 0h-16a5.32 5.32 0 0 0 -5.16 4 1.07 1.07 0 0 0 2.07.53 3.19 3.19 0 0 1 3.09-2.4h16a3.2 3.2 0 0 1 3.2 3.2v21.34a3.2 3.2 0 0 1 -3.2 3.2h-16a3.2 3.2 0 0 1 -3.2-3.2v-1.07h1.07v.1a1.07 1.07 0 1 0 2.13 0v-2.33a1.07 1.07 0 0 0 -2.13 0v.1h-3.2a1.07 1.07 0 1 0 0 2.13v1.07a5.34 5.34 0 0 0 5.33 5.33h16a5.34 5.34 0 0 0 5.33-5.33v-21.34a5.34 5.34 0 0 0 -5.33-5.33z" />
  <path
     style="fill:#f37121;fill-opacity:1"
     id="path8"
     d="m17.07 17.35a4 4 0 1 1 4-4 4 4 0 0 1 -4 4zm0-5.8a1.83 1.83 0 1 0 1.83 1.83 1.83 1.83 0 0 0 -1.83-1.83z" />
  <path
     style="fill:#f37121;fill-opacity:1"
     id="path10"
     d="m21.33 22.34a1.06 1.06 0 0 1 -.79-.34 4.72 4.72 0 0 0 -7 0 1.07 1.07 0 1 1 -1.54-1.45 6.85 6.85 0 0 1 10.1 0 1.07 1.07 0 0 1 -.79 1.79z" />
</svg>
