<?xml version="1.0" encoding="UTF-8" standalone="no"?>
<svg
   xmlns:dc="http://purl.org/dc/elements/1.1/"
   xmlns:cc="http://creativecommons.org/ns#"
   xmlns:rdf="http://www.w3.org/1999/02/22-rdf-syntax-ns#"
   xmlns:svg="http://www.w3.org/2000/svg"
   xmlns="http://www.w3.org/2000/svg"
   xmlns:sodipodi="http://sodipodi.sourceforge.net/DTD/sodipodi-0.dtd"
   xmlns:inkscape="http://www.inkscape.org/namespaces/inkscape"
   id="svg8"
   version="1.1"
   viewBox="0 0 12.7 12.7"
   height="48"
   width="48"
   sodipodi:docname="contact.svg"
   inkscape:version="1.0 (4035a4fb49, 2020-05-01)">
  <sodipodi:namedview
     inkscape:document-rotation="0"
     pagecolor="#ffffff"
     bordercolor="#666666"
     borderopacity="1"
     objecttolerance="10"
     gridtolerance="10"
     guidetolerance="10"
     inkscape:pageopacity="0"
     inkscape:pageshadow="2"
     inkscape:window-width="1516"
     inkscape:window-height="905"
     id="namedview34"
     showgrid="false"
     inkscape:zoom="7.65625"
     inkscape:cx="26.729975"
     inkscape:cy="25.338795"
     inkscape:window-x="0"
     inkscape:window-y="0"
     inkscape:window-maximized="0"
     inkscape:current-layer="svg8" />
  <defs
     id="defs2" />
  <metadata
     id="metadata5">
    <rdf:RDF>
      <cc:Work
         rdf:about="">
        <dc:format>image/svg+xml</dc:format>
        <dc:type
           rdf:resource="http://purl.org/dc/dcmitype/StillImage" />
        <dc:title />
      </cc:Work>
    </rdf:RDF>
  </metadata>
  <g
     id="layer1"
     style="stroke-width:0.00264583;stroke-miterlimit:4;stroke-dasharray:none">
    <g
       style="font-style:normal;font-variant:normal;font-weight:normal;font-stretch:normal;font-size:4.73911px;line-height:1.25;font-family:'Sitka Banner';-inkscape-font-specification:'Sitka Banner';letter-spacing:0px;word-spacing:0px;fill:#000000;fill-opacity:1;stroke:none;stroke-width:0.00264583;stroke-miterlimit:4;stroke-dasharray:none"
       id="text835"
       aria-label="{&lt;&gt;}">
      <g
         style="fill:#ff7f11;fill-opacity:1;stroke:#ff7f11;stroke-opacity:1;stroke-width:0.01194022;stroke-miterlimit:4;stroke-dasharray:none"
         transform="matrix(0.21836614,0,0,0.22486127,-0.78131829,1.9403501)"
         id="g1617">
        <path
           style="fill:#ff7f11;fill-opacity:1;stroke:#ff7f11;stroke-width:0.01194022;stroke-opacity:1;stroke-miterlimit:4;stroke-dasharray:none"
           id="path2"
           d="M 57.599842,-1.2682192 H 7.8525826 c -2.2429969,0 -4.0682658,1.82526888 -4.0682658,4.0682658 V 37.111628 c 0,2.242997 1.8252689,4.068266 4.0682658,4.068266 H 57.599842 c 2.242997,0 4.068266,-1.825269 4.068266,-4.068266 V 2.8000466 c 0,-2.24299692 -1.825269,-4.0682658 -4.068266,-4.0682658 z m 2.138806,38.3798472 c 0,1.179865 -0.958941,2.138806 -2.138806,2.138806 H 7.8525826 c -1.1798646,0 -2.1388061,-0.958941 -2.1388061,-2.138806 V 2.8000466 c 0,-1.1798646 0.9589415,-2.1388061 2.1388061,-2.1388061 H 57.599842 c 1.179865,0 2.138806,0.9589415 2.138806,2.1388061 z" />
        <path
           style="fill:#ff7f11;fill-opacity:1;stroke:#ff7f11;stroke-width:0.01194022;stroke-opacity:1;stroke-miterlimit:4;stroke-dasharray:none"
           id="path4"
           d="m 25.623871,25.98154 -3.509687,-1.792468 v -0.37335 c 1.57058,-0.857645 2.652321,-2.561055 3.291658,-4.210081 0.700205,-1.806021 0.820033,-4.566074 -0.0068,-6.320885 -2.020316,-3.227405 -3.694994,-4.4708937 -7.462558,-4.6874707 -1.438259,0.1389669 -4.198056,0.8842528 -5.840595,2.5411117 -0.387704,0.588015 -1.177571,1.774316 -1.429194,2.704912 -0.370101,1.368772 -0.263538,3.960841 0.437987,5.762332 0.641801,1.648123 1.721078,3.353401 3.291658,4.210081 v 0.362738 l -3.636067,1.792468 c -1.3274679,0.723548 -2.1523119,2.112758 -2.1523119,3.625455 v 1.278267 c 0,0.774678 0,2.015392 9.6472989,2.015392 9.647298,0 9.647298,-1.240714 9.647298,-2.015392 v -1.201089 c 0,-1.573474 -0.87308,-2.986803 -2.278691,-3.692021 z m 0.349232,4.675081 c -0.601991,0.366597 -2.996927,0.355964 -7.66429,0.355964 -4.667363,0 -7.169396,0.01063 -7.771387,-0.355964 v -1.060238 c 0,-0.80555 0.438952,-1.546462 1.111369,-1.912095 l 3.720963,-1.833951 c 1.221699,-1.043833 1.318877,-2.504519 0.372385,-3.522229 -1.463495,-0.630933 -2.343492,-2.233945 -2.90866,-3.679479 -0.506705,-1.296003 -0.417843,-2.766489 -0.30389,-4.148339 0.06979,-0.846263 0.533795,-1.683837 1.108767,-2.323353 1.095642,-1.218631 2.740401,-1.59244 4.371884,-1.919482 1.776622,-0.09806 4.592594,0.883802 5.965869,4.250553 0.586177,1.260744 0.205083,2.84625 -0.300034,4.139656 -0.564608,1.44574 -1.445166,3.048546 -2.908661,3.679479 -1.313075,0.877096 -0.415101,2.654384 0.347303,3.51837 l 3.641855,1.860964 c 0.75056,0.374315 1.216524,1.128734 1.216524,1.967084 z" />
        <path
           style="fill:#ff7f11;fill-opacity:1;stroke:#ff7f11;stroke-width:0.01194022;stroke-opacity:1;stroke-miterlimit:4;stroke-dasharray:none"
           id="path6"
           d="m 32.726212,13.202729 h 9.647299 c 0.533495,0 0.96473,-0.431235 0.96473,-0.96473 0,-0.533496 -0.431235,-0.96473 -0.96473,-0.96473 h -9.647299 c -0.533495,0 -0.96473,0.431234 -0.96473,0.96473 0,0.533495 0.431235,0.96473 0.96473,0.96473 z" />
        <path
           style="fill:#ff7f11;fill-opacity:1;stroke:#ff7f11;stroke-width:0.01194022;stroke-opacity:1;stroke-miterlimit:4;stroke-dasharray:none"
           id="path10"
           d="m 33.690942,27.673676 h -0.96473 c -0.533495,0 -0.96473,0.431235 -0.96473,0.96473 0,0.533496 0.431235,0.96473 0.96473,0.96473 h 0.96473 c 0.533496,0 0.96473,-0.431234 0.96473,-0.96473 0,-0.533495 -0.431234,-0.96473 -0.96473,-0.96473 z" />
        <path
           style="fill:#ff7f11;fill-opacity:1;stroke:#ff7f11;stroke-width:0.01194022;stroke-opacity:1;stroke-miterlimit:4;stroke-dasharray:none"
           id="path12"
           d="m 39.479321,27.673676 h -1.929459 c -0.533496,0 -0.96473,0.431235 -0.96473,0.96473 0,0.533496 0.431234,0.96473 0.96473,0.96473 h 1.929459 c 0.533496,0 0.96473,-0.431234 0.96473,-0.96473 0,-0.533495 -0.431234,-0.96473 -0.96473,-0.96473 z" />
        <path
           style="fill:#ff7f11;fill-opacity:1;stroke:#ff7f11;stroke-width:0.01194022;stroke-opacity:1;stroke-miterlimit:4;stroke-dasharray:none"
           id="path16"
           d="m 48.273875,27.673676 h -1.92946 c -0.533496,0 -0.96473,0.431235 -0.96473,0.96473 0,0.533496 0.431234,0.96473 0.96473,0.96473 h 1.92946 c 0.533495,0 0.964729,-0.431234 0.964729,-0.96473 0,-0.533495 -0.431234,-0.96473 -0.964729,-0.96473 z" />
        <path
           style="fill:#ff7f11;fill-opacity:1;stroke:#ff7f11;stroke-width:0.01194022;stroke-opacity:1;stroke-miterlimit:4;stroke-dasharray:none"
           id="path18"
           d="m 53.265311,27.953448 c -0.174616,0.182334 -0.279772,0.434128 -0.279772,0.684958 0,0.25083 0.105156,0.50166 0.279772,0.684958 0.182334,0.173652 0.434128,0.279772 0.684958,0.279772 0.25083,0 0.50166,-0.10612 0.684958,-0.279772 0.173652,-0.183298 0.279772,-0.434128 0.279772,-0.684958 0,-0.25083 -0.10612,-0.502624 -0.279772,-0.684958 -0.366597,-0.35695 -1.012966,-0.35695 -1.369916,0 z" />
        <path
           style="fill:#ff7f11;fill-opacity:1;stroke:#ff7f11;stroke-width:0.01194022;stroke-opacity:1;stroke-miterlimit:4;stroke-dasharray:none"
           id="path20"
           d="M 42.518311,17.061648 H 32.22917 c -0.258631,0 -0.467688,0.431234 -0.467688,0.96473 0,0.533495 0.209057,0.96473 0.467688,0.96473 h 10.289141 c 0.258632,0 0.467689,-0.431235 0.467689,-0.96473 0,-0.533496 -0.209057,-0.96473 -0.467689,-0.96473 z" />
        <path
           style="fill:#ff7f11;fill-opacity:1;stroke:#ff7f11;stroke-width:0.01194022;stroke-opacity:1;stroke-miterlimit:4;stroke-dasharray:none"
           id="path22"
           d="M 53.950269,22.850027 H 32.726212 c -0.533495,0 -0.96473,0.431234 -0.96473,0.96473 0,0.533496 0.431235,0.96473 0.96473,0.96473 h 21.224057 c 0.533496,0 0.96473,-0.431234 0.96473,-0.96473 0,-0.533496 -0.431234,-0.96473 -0.96473,-0.96473 z" />
        <g
           style="fill:#ff7f11;fill-opacity:1;stroke:#ff7f11;stroke-opacity:1;stroke-width:0.01194022;stroke-miterlimit:4;stroke-dasharray:none"
           id="g26" />
        <g
           style="fill:#ff7f11;fill-opacity:1;stroke:#ff7f11;stroke-opacity:1;stroke-width:0.01194022;stroke-miterlimit:4;stroke-dasharray:none"
           id="g28" />
        <g
           style="fill:#ff7f11;fill-opacity:1;stroke:#ff7f11;stroke-opacity:1;stroke-width:0.01194022;stroke-miterlimit:4;stroke-dasharray:none"
           id="g30" />
        <g
           style="fill:#ff7f11;fill-opacity:1;stroke:#ff7f11;stroke-opacity:1;stroke-width:0.01194022;stroke-miterlimit:4;stroke-dasharray:none"
           id="g32" />
        <g
           style="fill:#ff7f11;fill-opacity:1;stroke:#ff7f11;stroke-opacity:1;stroke-width:0.01194022;stroke-miterlimit:4;stroke-dasharray:none"
           id="g34" />
        <g
           style="fill:#ff7f11;fill-opacity:1;stroke:#ff7f11;stroke-opacity:1;stroke-width:0.01194022;stroke-miterlimit:4;stroke-dasharray:none"
           id="g36" />
        <g
           style="fill:#ff7f11;fill-opacity:1;stroke:#ff7f11;stroke-opacity:1;stroke-width:0.01194022;stroke-miterlimit:4;stroke-dasharray:none"
           id="g38" />
        <g
           style="fill:#ff7f11;fill-opacity:1;stroke:#ff7f11;stroke-opacity:1;stroke-width:0.01194022;stroke-miterlimit:4;stroke-dasharray:none"
           id="g40" />
        <g
           style="fill:#ff7f11;fill-opacity:1;stroke:#ff7f11;stroke-opacity:1;stroke-width:0.01194022;stroke-miterlimit:4;stroke-dasharray:none"
           id="g42" />
        <g
           style="fill:#ff7f11;fill-opacity:1;stroke:#ff7f11;stroke-opacity:1;stroke-width:0.01194022;stroke-miterlimit:4;stroke-dasharray:none"
           id="g44" />
        <g
           style="fill:#ff7f11;fill-opacity:1;stroke:#ff7f11;stroke-opacity:1;stroke-width:0.01194022;stroke-miterlimit:4;stroke-dasharray:none"
           id="g46" />
        <g
           style="fill:#ff7f11;fill-opacity:1;stroke:#ff7f11;stroke-opacity:1;stroke-width:0.01194022;stroke-miterlimit:4;stroke-dasharray:none"
           id="g48" />
        <g
           style="fill:#ff7f11;fill-opacity:1;stroke:#ff7f11;stroke-opacity:1;stroke-width:0.01194022;stroke-miterlimit:4;stroke-dasharray:none"
           id="g50" />
        <g
           style="fill:#ff7f11;fill-opacity:1;stroke:#ff7f11;stroke-opacity:1;stroke-width:0.01194022;stroke-miterlimit:4;stroke-dasharray:none"
           id="g52" />
        <g
           style="fill:#ff7f11;fill-opacity:1;stroke:#ff7f11;stroke-opacity:1;stroke-width:0.01194022;stroke-miterlimit:4;stroke-dasharray:none"
           id="g54" />
        <path
           d="m 46.716179,17.083813 h -0.96473 c -0.533495,0 -0.96473,0.431235 -0.96473,0.96473 0,0.533496 0.431235,0.96473 0.96473,0.96473 h 0.96473 c 0.533496,0 0.96473,-0.431234 0.96473,-0.96473 0,-0.533495 -0.431234,-0.96473 -0.96473,-0.96473 z"
           id="path1630"
           style="fill:#ff7f11;fill-opacity:1;stroke:#ff7f11;stroke-width:0.01194022;stroke-opacity:1;stroke-miterlimit:4;stroke-dasharray:none" />
        <path
           d="m 52.504558,17.083813 h -1.929459 c -0.533496,0 -0.96473,0.431235 -0.96473,0.96473 0,0.533496 0.431234,0.96473 0.96473,0.96473 h 1.929459 c 0.533496,0 0.96473,-0.431234 0.96473,-0.96473 0,-0.533495 -0.431234,-0.96473 -0.96473,-0.96473 z"
           id="path1632"
           style="fill:#ff7f11;fill-opacity:1;stroke:#ff7f11;stroke-width:0.01194022;stroke-opacity:1;stroke-miterlimit:4;stroke-dasharray:none" />
      </g>
    </g>
  </g>
</svg>
