<?xml version="1.0" encoding="UTF-8" standalone="no"?>
<svg
   xmlns:dc="http://purl.org/dc/elements/1.1/"
   xmlns:cc="http://creativecommons.org/ns#"
   xmlns:rdf="http://www.w3.org/1999/02/22-rdf-syntax-ns#"
   xmlns:svg="http://www.w3.org/2000/svg"
   xmlns="http://www.w3.org/2000/svg"
   xmlns:sodipodi="http://sodipodi.sourceforge.net/DTD/sodipodi-0.dtd"
   xmlns:inkscape="http://www.inkscape.org/namespaces/inkscape"
   inkscape:version="1.0 (4035a4fb49, 2020-05-01)"
   sodipodi:docname="person.svg"
   xml:space="preserve"
   style="enable-background:new 0 0 512 512;"
   viewBox="0 0 512 512"
   y="0px"
   x="0px"
   id="Capa_1"
   version="1.1"><metadata
   id="metadata49"><rdf:RDF><cc:Work
       rdf:about=""><dc:format>image/svg+xml</dc:format><dc:type
         rdf:resource="http://purl.org/dc/dcmitype/StillImage" /></cc:Work></rdf:RDF></metadata><defs
   id="defs47" /><sodipodi:namedview
   inkscape:current-layer="Capa_1"
   inkscape:window-maximized="0"
   inkscape:window-y="0"
   inkscape:window-x="0"
   inkscape:cy="100.25256"
   inkscape:cx="242.79162"
   inkscape:zoom="0.50754247"
   showgrid="false"
   id="namedview45"
   inkscape:window-height="965"
   inkscape:window-width="1440"
   inkscape:pageshadow="2"
   inkscape:pageopacity="0"
   guidetolerance="10"
   gridtolerance="10"
   objecttolerance="10"
   borderopacity="1"
   bordercolor="#666666"
   pagecolor="#ffffff" />
<g
   style="fill:#f37121;fill-opacity:1"
   id="g6">
	<g
   style="fill:#f37121;fill-opacity:1"
   id="g4">
		<path
   style="fill:#f37121;fill-opacity:1"
   id="path2"
   d="M256,0c-74.439,0-135,60.561-135,135s60.561,135,135,135s135-60.561,135-135S330.439,0,256,0z M256,240    c-57.897,0-105-47.103-105-105c0-57.897,47.103-105,105-105c57.897,0,105,47.103,105,105C361,192.897,313.897,240,256,240z" />
	</g>
</g>
<g
   style="fill:#f37121;fill-opacity:1"
   id="g12">
	<g
   style="fill:#f37121;fill-opacity:1"
   id="g10">
		<path
   style="fill:#f37121;fill-opacity:1"
   id="path8"
   d="M297.833,301h-83.667C144.964,301,76.669,332.951,31,401.458V512h450V401.458C435.397,333.05,367.121,301,297.833,301z     M451.001,482H451H61v-71.363C96.031,360.683,152.952,331,214.167,331h83.667c61.215,0,118.135,29.683,153.167,79.637V482z" />
	</g>
</g>
<g
   id="g14">
</g>
<g
   id="g16">
</g>
<g
   id="g18">
</g>
<g
   id="g20">
</g>
<g
   id="g22">
</g>
<g
   id="g24">
</g>
<g
   id="g26">
</g>
<g
   id="g28">
</g>
<g
   id="g30">
</g>
<g
   id="g32">
</g>
<g
   id="g34">
</g>
<g
   id="g36">
</g>
<g
   id="g38">
</g>
<g
   id="g40">
</g>
<g
   id="g42">
</g>
</svg>
