<svg id="Capa_1" enable-background="new 0 0 512 512" height="512" viewBox="0 0 512 512" width="512" xmlns="http://www.w3.org/2000/svg"><g><path d="m474.5 0h-437c-20.678 0-37.5 16.822-37.5 37.5v437c0 20.678 16.822 37.5 37.5 37.5h317c18.11 0 33.261-12.904 36.745-30h53.255c4.142 0 7.5-3.357 7.5-7.5v-437c0-4.143-3.358-7.5-7.5-7.5h-53.257c-1.129-5.538-3.479-10.638-6.76-15h90.017c12.407 0 22.5 10.094 22.5 22.5v188.5c0 12.406-10.093 22.5-22.5 22.5-4.142 0-7.5 3.357-7.5 7.5v218.5c0 12.406-10.093 22.5-22.5 22.5h-38.072c-4.142 0-7.5 3.357-7.5 7.5s3.358 7.5 7.5 7.5h38.072c20.678 0 37.5-16.822 37.5-37.5v-211.753c17.095-3.485 30-18.638 30-36.747v-188.5c0-20.678-16.822-37.5-37.5-37.5zm-82.5 45h15v422h-15zm-37.5 452h-317c-12.407 0-22.5-10.094-22.5-22.5v-437c0-12.406 10.093-22.5 22.5-22.5h317c12.407 0 22.5 10.094 22.5 22.5v437c0 12.406-10.093 22.5-22.5 22.5zm82.5-30h-15v-422h15z"/></g></svg>