<?xml version="1.0" encoding="UTF-8" standalone="no"?>
<svg
   xmlns:dc="http://purl.org/dc/elements/1.1/"
   xmlns:cc="http://creativecommons.org/ns#"
   xmlns:rdf="http://www.w3.org/1999/02/22-rdf-syntax-ns#"
   xmlns:svg="http://www.w3.org/2000/svg"
   xmlns="http://www.w3.org/2000/svg"
   xmlns:sodipodi="http://sodipodi.sourceforge.net/DTD/sodipodi-0.dtd"
   xmlns:inkscape="http://www.inkscape.org/namespaces/inkscape"
   height="352.00003"
   viewBox="0 0 28 22.000002"
   width="448"
   version="1.1"
   id="svg5"
   sodipodi:docname="projects.svg"
   inkscape:version="1.0 (4035a4fb49, 2020-05-01)">
  <metadata
     id="metadata11">
    <rdf:RDF>
      <cc:Work
         rdf:about="">
        <dc:format>image/svg+xml</dc:format>
        <dc:type
           rdf:resource="http://purl.org/dc/dcmitype/StillImage" />
        <dc:title />
      </cc:Work>
    </rdf:RDF>
  </metadata>
  <defs
     id="defs9" />
  <sodipodi:namedview
     inkscape:document-rotation="0"
     pagecolor="#ffffff"
     bordercolor="#666666"
     borderopacity="1"
     objecttolerance="10"
     gridtolerance="10"
     guidetolerance="10"
     inkscape:pageopacity="0"
     inkscape:pageshadow="2"
     inkscape:window-width="1107"
     inkscape:window-height="696"
     id="namedview7"
     showgrid="false"
     inkscape:zoom="0.71777344"
     inkscape:cx="140.49571"
     inkscape:cy="131.90133"
     inkscape:window-x="0"
     inkscape:window-y="0"
     inkscape:window-maximized="0"
     inkscape:current-layer="svg5"
     fit-margin-top="0"
     fit-margin-left="0"
     fit-margin-right="0"
     fit-margin-bottom="0" />
  <g
     id="Layer_2"
     data-name="Layer 2"
     style="fill:#f37121;fill-opacity:1;stroke-width:0.9375;stroke-miterlimit:4;stroke-dasharray:none;stroke:none;stroke-opacity:0"
     transform="translate(-2,-4.9999974)">
    <path
       d="M 27,6 H 15 A 3,3 0 0 0 12.76,5 H 5 A 3,3 0 0 0 2,8 v 16 a 3,3 0 0 0 3,3 h 22 a 3,3 0 0 0 3,-3 V 9 A 3,3 0 0 0 27,6 Z m 1,3 V 9.18 A 3,3 0 0 0 27,9 H 17.24 A 1,1 0 0 1 16.34,8.45 L 16.12,8 H 27 a 1,1 0 0 1 1,1 z m 0,15 a 1,1 0 0 1 -1,1 H 5 A 1,1 0 0 1 4,24 V 8 A 1,1 0 0 1 5,7 h 7.76 a 1,1 0 0 1 0.9,0.55 l 0.89,1.79 A 3,3 0 0 0 17.24,11 H 27 a 1,1 0 0 1 1,1 z"
       id="path2"
       style="fill:#f37121;fill-opacity:1;stroke-width:0.9375;stroke-miterlimit:4;stroke-dasharray:none;stroke:none;stroke-opacity:0" />
  </g>
</svg>
