<?xml version="1.0" encoding="UTF-8" standalone="no"?>
<svg
   xmlns:dc="http://purl.org/dc/elements/1.1/"
   xmlns:cc="http://creativecommons.org/ns#"
   xmlns:rdf="http://www.w3.org/1999/02/22-rdf-syntax-ns#"
   xmlns:svg="http://www.w3.org/2000/svg"
   xmlns="http://www.w3.org/2000/svg"
   xmlns:sodipodi="http://sodipodi.sourceforge.net/DTD/sodipodi-0.dtd"
   xmlns:inkscape="http://www.inkscape.org/namespaces/inkscape"
   width="97.28096mm"
   height="81.916756mm"
   viewBox="0 0 97.28096 81.916756"
   version="1.1"
   id="svg8"
   inkscape:version="1.0 (4035a4fb49, 2020-05-01)"
   sodipodi:docname="no-image.svg">
  <defs
     id="defs2" />
  <sodipodi:namedview
     id="base"
     pagecolor="#ffffff"
     bordercolor="#666666"
     borderopacity="1.0"
     inkscape:pageopacity="0.0"
     inkscape:pageshadow="2"
     inkscape:zoom="1.4"
     inkscape:cx="134.87941"
     inkscape:cy="179.19435"
     inkscape:document-units="mm"
     inkscape:current-layer="layer1"
     inkscape:document-rotation="0"
     showgrid="false"
     inkscape:window-width="1920"
     inkscape:window-height="1017"
     inkscape:window-x="-8"
     inkscape:window-y="-8"
     inkscape:window-maximized="1"
     fit-margin-top="0"
     fit-margin-left="0"
     fit-margin-right="0"
     fit-margin-bottom="0" />
  <metadata
     id="metadata5">
    <rdf:RDF>
      <cc:Work
         rdf:about="">
        <dc:format>image/svg+xml</dc:format>
        <dc:type
           rdf:resource="http://purl.org/dc/dcmitype/StillImage" />
        <dc:title />
      </cc:Work>
    </rdf:RDF>
  </metadata>
  <g
     inkscape:label="Layer 1"
     inkscape:groupmode="layer"
     id="layer1"
     transform="translate(-26.365061,-74.284955)">
    <g
       transform="matrix(0.48782936,0,0,0.48782936,38.415636,59.024252)"
       id="g849">
      <path
         d="m 38.116023,89.116478 h 73.779037 c 5.65661,0 10.21049,4.553879 10.21049,10.210492 v 45.12378 c 0,5.65661 -4.55388,10.21049 -10.21049,10.21049 H 38.116023 c -5.656613,0 -10.210492,-4.55388 -10.210492,-10.21049 V 99.32697 c 0,-5.656613 4.553879,-10.210492 10.210492,-10.210492 z"
         style="opacity:0.999;fill:#aaccff;stroke:#ededed;stroke-width:3.08094;stroke-miterlimit:4;stroke-dasharray:none;stroke-opacity:1"
         id="rect833" />
      <path
         d="m 38.92044,75.100105 h 16.414159 c 1.258468,0 2.271602,1.013135 2.271602,2.271602 v 10.039015 c 0,1.258468 -1.013134,2.271602 -2.271602,2.271602 H 38.92044 c -1.258467,0 -2.271602,-1.013134 -2.271602,-2.271602 V 77.371707 c 0,-1.258467 1.013135,-2.271602 2.271602,-2.271602 z"
         style="opacity:0.999;fill:#aaccff;stroke:#ededed;stroke-width:1.6303;stroke-miterlimit:4;stroke-dasharray:none;stroke-opacity:1"
         id="rect835" />
      <path
         d="m 73.146946,104.71874 h 1.57629 c 9.512247,0 17.17012,7.65788 17.17012,17.17012 0,9.51225 -7.657873,17.17012 -17.17012,17.17012 h -1.57629 c -9.512247,0 -17.17012,-7.65787 -17.17012,-17.17012 0,-9.51224 7.657873,-17.17012 17.17012,-17.17012 z"
         style="opacity:0.999;fill:#aaccff;stroke:#ededed;stroke-width:3.77248;stroke-miterlimit:4;stroke-dasharray:none;stroke-opacity:1"
         id="rect837" />
      <path
         d="m 103.86728,83.361191 h 5.09591 c 0.3907,0 0.70523,0.314536 0.70523,0.705237 v 3.116692 c 0,0.390702 -0.31453,0.705238 -0.70523,0.705238 h -5.09591 c -0.3907,0 -0.70524,-0.314536 -0.70524,-0.705238 v -3.116692 c 0,-0.390701 0.31454,-0.705237 0.70524,-0.705237 z"
         style="opacity:0.999;fill:#aaccff;stroke:#ededed;stroke-width:0.50614;stroke-miterlimit:4;stroke-dasharray:none;stroke-opacity:1"
         id="rect839" />
    </g>
  </g>
</svg>
